<svg width="180" height="180" viewBox="0 0 180 180" fill="none" xmlns="http://www.w3.org/2000/svg">
  <rect width="180" height="180" rx="40" fill="#111111"/>
  <!-- Signature Pixelsprings leaf/teardrop icon -->
  <g transform="translate(90, 90) rotate(-45) translate(-45, -45)">
    <path d="M45 10 C64.33 10 80 25.67 80 45 C80 64.33 64.33 80 45 80 C25.67 80 10 64.33 10 45 C10 25.67 25.67 10 45 10 Z" fill="none" stroke="#BFFF00" stroke-width="8" stroke-linecap="round"/>
    <path d="M45 20 C58.8 20 70 31.2 70 45 C70 58.8 58.8 70 45 70 C31.2 70 20 58.8 20 45 C20 31.2 31.2 20 45 20 Z" fill="#BFFF00"/>
    <circle cx="45" cy="45" r="12" fill="#111111"/>
    <circle cx="45" cy="45" r="6" fill="#3e6326"/>
  </g>
</svg>
